{
    "asset" : {
        "generator" : "Khronos glTF Blender I/O v1.2.75",
        "version" : "2.0"
    },
    "scene" : 0,
    "scenes" : [
        {
            "name" : "Scene",
            "nodes" : [
                0
            ]
        }
    ],
    "nodes" : [
        {
            "mesh" : 0,
            "name" : "Sphere"
        }
    ],
    "animations" : [
        {
            "channels" : [
                {
                    "sampler" : 0,
                    "target" : {
                        "node" : 0,
                        "path" : "translation"
                    }
                },
                {
                    "sampler" : 1,
                    "target" : {
                        "node" : 0,
                        "path" : "rotation"
                    }
                },
                {
                    "sampler" : 2,
                    "target" : {
                        "node" : 0,
                        "path" : "scale"
                    }
                }
            ],
            "name" : "SphereAction",
            "samplers" : [
                {
                    "input" : 6,
                    "interpolation" : "LINEAR",
                    "output" : 7
                },
                {
                    "input" : 6,
                    "interpolation" : "LINEAR",
                    "output" : 8
                },
                {
                    "input" : 6,
                    "interpolation" : "LINEAR",
                    "output" : 9
                }
            ]
        }
    ],
    "materials" : [
        {
            "doubleSided" : true,
            "emissiveFactor" : [
                1,
                1,
                1
            ],
            "emissiveTexture" : {
                "index" : 0,
                "texCoord" : 0
            },
            "name" : "Material",
            "pbrMetallicRoughness" : {
                "baseColorTexture" : {
                    "index" : 1,
                    "texCoord" : 0
                },
                "metallicFactor" : 1,
                "roughnessFactor" : 0
            }
        }
    ],
    "meshes" : [
        {
            "extras" : {
                "targetNames" : [
                    "Key 1"
                ]
            },
            "name" : "Sphere",
            "primitives" : [
                {
                    "attributes" : {
                        "POSITION" : 0,
                        "NORMAL" : 1,
                        "TEXCOORD_0" : 2
                    },
                    "indices" : 3,
                    "material" : 0,
                    "targets" : [
                        {
                            "POSITION" : 4,
                            "NORMAL" : 5
                        }
                    ]
                }
            ],
            "weights" : [
                0
            ]
        }
    ],
    "textures" : [
        {
            "source" : 0
        },
        {
            "source" : 0
        }
    ],
    "images" : [
        {
            "bufferView" : 4,
            "mimeType" : "image/jpeg",
            "name" : "buraconegrotextura2"
        }
    ],
    "accessors" : [
        {
            "bufferView" : 0,
            "componentType" : 5126,
            "count" : 4480,
            "max" : [
                0.9935954213142395,
                0.09192103147506714,
                0.9935956001281738
            ],
            "min" : [
                -0.9935950040817261,
                -0.041531048715114594,
                -0.9935951232910156
            ],
            "type" : "VEC3"
        },
        {
            "bufferView" : 1,
            "componentType" : 5126,
            "count" : 4480,
            "type" : "VEC3"
        },
        {
            "bufferView" : 2,
            "componentType" : 5126,
            "count" : 4480,
            "type" : "VEC2"
        },
        {
            "bufferView" : 3,
            "componentType" : 5123,
            "count" : 23808,
            "type" : "SCALAR"
        },
        {
            "bufferView" : 5,
            "componentType" : 5126,
            "count" : 4480,
            "max" : [
                1.9198018312454224,
                1.30385160446167e-08,
                1.9197914600372314
            ],
            "min" : [
                -1.9197965860366821,
                -1.4901161193847656e-08,
                -1.9197940826416016
            ],
            "type" : "VEC3"
        },
        {
            "bufferView" : 6,
            "componentType" : 5126,
            "count" : 4480,
            "type" : "VEC3"
        },
        {
            "bufferView" : 7,
            "componentType" : 5126,
            "count" : 120,
            "max" : [
                5
            ],
            "min" : [
                0.041666666666666664
            ],
            "type" : "SCALAR"
        },
        {
            "bufferView" : 8,
            "componentType" : 5126,
            "count" : 120,
            "type" : "VEC3"
        },
        {
            "bufferView" : 9,
            "componentType" : 5126,
            "count" : 120,
            "type" : "VEC4"
        },
        {
            "bufferView" : 10,
            "componentType" : 5126,
            "count" : 120,
            "type" : "VEC3"
        }
    ],
    "bufferViews" : [
        {
            "buffer" : 0,
            "byteLength" : 53760,
            "byteOffset" : 0
        },
        {
            "buffer" : 0,
            "byteLength" : 53760,
            "byteOffset" : 53760
        },
        {
            "buffer" : 0,
            "byteLength" : 35840,
            "byteOffset" : 107520
        },
        {
            "buffer" : 0,
            "byteLength" : 47616,
            "byteOffset" : 143360
        },
        {
            "buffer" : 0,
            "byteLength" : 1276282,
            "byteOffset" : 190976
        },
        {
            "buffer" : 0,
            "byteLength" : 53760,
            "byteOffset" : 1467260
        },
        {
            "buffer" : 0,
            "byteLength" : 53760,
            "byteOffset" : 1521020
        },
        {
            "buffer" : 0,
            "byteLength" : 480,
            "byteOffset" : 1574780
        },
        {
            "buffer" : 0,
            "byteLength" : 1440,
            "byteOffset" : 1575260
        },
        {
            "buffer" : 0,
            "byteLength" : 1920,
            "byteOffset" : 1576700
        },
        {
            "buffer" : 0,
            "byteLength" : 1440,
            "byteOffset" : 1578620
        }
    ],
    "buffers" : [
        {
            "byteLength" : 1580060,
            "uri" : "data:application/octet-stream;base64,"
        }
    ]
}
